# xmcd
#
# Track frame offsets: 
#        150
#        35742
#        72578
#        93630
#        118223
#        146990
#        167139
#        187735
#        215181
#
# Disc length: 3234 seconds
#
# Revision: 0
# Processed by: cddbd v1.5.2PL0 Copyright (c) Steve Scherf et al.
# Submitted via: ExactAudioCopyFreeDBPlugin 1.0
#
DISCID=940ca009
DTITLE=Cloud One - Spaced out . The very best of
DYEAR=2019
DGENRE=No, thanks.
TTITLE0=Atmosphere Strut (1979 Remix Part 1)
TTITLE1=Atmosphere Strut (1979 Remix Part 2)
TTITLE2=Don't Let My Rainbow Pass Me By
TTITLE3=Patty Duke
TTITLE4=Flying High (Part 1)
TTITLE5=Flying High (Part 2)
TTITLE6=Spaced Out (7" Edit)
TTITLE7=Disco Juice (7" Version)
TTITLE8=Charleston Hopscotch (7" Version)
EXTD=
EXTT0=
EXTT1=
EXTT2=
EXTT3=
EXTT4=
EXTT5=
EXTT6=
EXTT7=
EXTT8=
PLAYORDER=
